<?xml version="1.0" encoding="utf-8"?>
<!-- Generator: Adobe Illustrator 24.1.3, SVG Export Plug-In . SVG Version: 6.00 Build 0)  -->
<svg version="1.1" id="Capa_1" xmlns="http://www.w3.org/2000/svg" xmlns:xlink="http://www.w3.org/1999/xlink" x="0px" y="0px"
	 viewBox="0 0 3273 297" style="enable-background:new 0 0 3273 297;" xml:space="preserve">
<style type="text/css">
	.st0{fill:#84BD00;}
</style>
<g>
	<path class="st0" d="M51.65,72.17L14.71,185.9h446.65l24.26-74.2H128.4l11.89-37.58h357.22l24.26-74.2H151.1
		C105.8-0.09,65.65,29.09,51.65,72.17z"/>
	<path class="st0" d="M2.82,223c-11.96,36.6,15.31,74.2,53.81,74.2h290.51c46.57,0,87.86-29.94,102.33-74.2l0,0H2.82L2.82,223z"/>
	<path class="st0" d="M675.94-0.09c-46.57,0-87.86,29.94-102.33,74.2l0,0h178.85l-72.3,223.09h88.95l72.3-223.09h178.85l24.26-74.2
		H675.94z"/>
	<path class="st0" d="M1534.46,74.12l24.26-74.2h-391.5c-27.79,0-52.43,17.87-61.06,44.28l-8.4,25.7l-0.02,0.01l-1.08,3.37
		l-0.28,0.84h0l-23.84,74.12l-12.31,37.66h0.2l-11.93,37.1h-0.15l-24.26,74.2h360.02c46.57,0,87.86-29.94,102.33-74.2l0,0h-336.89
		l10.12-37.1h253.04l24.26-74.2h-257.07l10.25-37.58H1534.46z"/>
	<path class="st0" d="M1700.06-0.09c-38.9,0-73.38,25.05-85.4,62.05l-76.4,235.24h89.42l72.3-223.09h267.32l-72.3,223.09h89.9
		l96.56-297.29H1700.06z"/>
	<path class="st0" d="M2208.48-0.09c-30.37,0-57.29,19.52-66.73,48.39l-8.44,25.81h426.67l24.26-74.2H2208.48z"/>
	<polygon class="st0" points="2061.01,297.2 2150.44,297.2 2188.97,184.95 2526.21,184.95 2550.47,110.27 2123.8,110.27 	"/>
	<polygon class="st0" points="2563.79,297.2 2653.69,297.2 2750.25,-0.09 2660.35,-0.09 	"/>
	<path class="st0" d="M2826.35-0.09l-24.26,74.2h178.85l-72.3,223.09h88.95l72.3-223.09h100.78c46.57,0,87.86-29.94,102.33-74.2l0,0
		H2826.35z"/>
</g>
</svg>
