<?xml version="1.0" encoding="UTF-8" standalone="no"?>
<!-- Generator: Adobe Illustrator 27.7.0, SVG Export Plug-In . SVG Version: 6.00 Build 0)  -->

<svg
   version="1.1"
   id="Capa_1"
   x="0px"
   y="0px"
   viewBox="0 0 96 96"
   style="enable-background:new 0 0 96 96;"
   xml:space="preserve"
   xmlns="http://www.w3.org/2000/svg"
   xmlns:svg="http://www.w3.org/2000/svg"><defs
   id="defs1" />
<style
   type="text/css"
   id="style1">
	.st0{fill-rule:evenodd;clip-rule:evenodd;fill:#FFFFFF;}
	.st1{fill-rule:evenodd;clip-rule:evenodd;fill:#F23054;}
</style>
<rect
   style="fill:#f23054;fill-rule:evenodd;fill-opacity:1"
   id="rect2"
   width="97.070679"
   height="96.530144"
   x="-0.1682041"
   y="-0.16250122" /><rect
   x="29.424992"
   y="29.512661"
   class="st0"
   width="38.132015"
   height="38.132015"
   id="rect1"
   style="stroke-width:0.529611" />
<path
   class="st1"
   d="M 72.694236,29.300817 C 71.635013,27.182371 69.887296,25.434654 67.76885,24.375431 65.332638,23.157325 62.15497,23.157325 55.852596,23.157325 H 41.129401 c -6.355336,0 -9.480043,0 -11.916255,1.218106 -2.118445,1.059223 -3.866162,2.80694 -4.925385,4.925386 -1.218106,2.436212 -1.218106,5.61388 -1.218106,11.916254 v 14.670234 c 0,6.302375 0,9.480042 1.218106,11.916255 1.059223,2.118445 2.80694,3.866162 4.925385,4.925385 2.436212,1.271067 5.61388,1.271067 11.916255,1.271067 h 14.670234 c 6.302374,0 9.480042,0 11.916254,-1.218106 2.118446,-1.059223 3.866163,-2.80694 4.925386,-4.925385 1.271067,-2.436212 1.271067,-5.61388 1.271067,-11.916255 V 41.217071 c 0,-6.302374 0,-9.480042 -1.218106,-11.916254 z M 37.898772,65.526231 c -3.495435,0 -6.355336,-2.859901 -6.355336,-6.355336 V 31.631106 h 3.548396 v 27.539789 c 0,1.535873 1.271067,2.80694 2.80694,2.80694 h 0.9533 l 0.423689,3.548396 z m 7.043831,0 H 41.394207 L 37.157316,31.631106 h 3.548396 l 2.489173,19.754503 2.489173,-19.754503 h 3.548396 z m 9.903731,0 H 51.297938 V 38.674937 h 3.548396 z M 53.098617,36.556492 c -1.37699,0 -2.489173,-1.112184 -2.489173,-2.489174 0,-1.376989 1.112183,-2.489173 2.489173,-2.489173 1.376989,0 2.489173,1.112184 2.489173,2.489173 -0.05296,1.37699 -1.165145,2.489174 -2.489173,2.489174 z m 12.339944,-1.37699 v 0 c -1.482912,0 -3.442474,0.423689 -4.236891,2.436212 -0.317767,0.847378 -0.370728,1.959562 -0.05296,3.018785 l 3.866163,13.028438 c 0.9533,3.230629 0.211844,6.673103 -1.906601,9.056354 -1.641795,1.747717 -3.866163,2.80694 -6.143492,2.80694 v -3.548396 c 1.271068,0 2.542135,-0.635534 3.548396,-1.694756 1.324029,-1.429951 1.747718,-3.601357 1.165145,-5.666841 L 57.812158,41.587799 c -0.529612,-1.853639 -0.476651,-3.654318 0.105922,-5.296113 1.165145,-2.965823 3.866162,-4.66058 7.520481,-4.66058 z"
   id="path1"
   style="stroke-width:0.529611" />
</svg>
