<?xml version="1.0" encoding="utf-8"?>
<!-- Generator: Adobe Illustrator 27.7.0, SVG Export Plug-In . SVG Version: 6.00 Build 0)  -->
<svg version="1.1" id="Capa_1" xmlns="http://www.w3.org/2000/svg" xmlns:xlink="http://www.w3.org/1999/xlink" x="0px" y="0px"
	 viewBox="0 0 1366 72" style="enable-background:new 0 0 1366 72;" xml:space="preserve">
<style type="text/css">
	.st0{fill:#E4E6E8;}
	.st1{fill:#F2F2F4;}
	.st2{fill:#FFFFFF;}
	.st3{opacity:0.48;}
	.st4{fill-rule:evenodd;clip-rule:evenodd;fill:#9599A4;}
	.st5{fill:#9599A4;}
</style>
<rect class="st0" width="1366" height="38"/>
<rect y="38" class="st1" width="1366" height="34"/>
<circle class="st2" cx="21" cy="19" r="5"/>
<circle class="st2" cx="39" cy="19" r="5"/>
<circle class="st2" cx="57" cy="19" r="5"/>
<path class="st1" d="M210,38c-6.6,0-12-5.4-12-12v-2c0-5.6,0-8.4-1.1-10.5c-1-1.9-2.5-3.4-4.4-4.4C190.4,8,187.6,8,182,8H94
	c-5.6,0-8.4,0-10.5,1.1c-1.9,1-3.4,2.5-4.4,4.4C78,15.6,78,18.4,78,24v2c0,6.6-5.4,12-12,12h0v34h144L210,38L210,38z"/>
<g class="st3">
	<path class="st4" d="M99.6,15.9c-0.3-0.7-0.9-1.2-1.6-1.6C97.3,14,96.3,14,94.3,14h-4.6c-2,0-3,0-3.8,0.4c-0.7,0.3-1.2,0.9-1.6,1.6
		C84,16.7,84,17.7,84,19.7v4.6c0,2,0,3,0.4,3.8c0.3,0.7,0.9,1.2,1.6,1.5c0.8,0.4,1.8,0.4,3.8,0.4h4.6c2,0,3,0,3.8-0.4
		c0.7-0.3,1.2-0.9,1.5-1.6c0.4-0.8,0.4-1.8,0.4-3.7v-4.6C100,17.7,100,16.7,99.6,15.9z M88.7,27.3c-1.1,0-2-0.9-2-2v-8.7h1.1v8.7
		c0,0.5,0.4,0.9,0.9,0.9H89l0.1,1.1H88.7z M90.9,27.3h-1.1l-1.3-10.7h1.1l0.8,6.2l0.8-6.2h1.1L90.9,27.3z M94,27.3h-1.1v-8.5H94
		V27.3z M93.4,18.2c-0.4,0-0.8-0.4-0.8-0.8c0-0.4,0.3-0.8,0.8-0.8s0.8,0.4,0.8,0.8C94.2,17.9,93.9,18.2,93.4,18.2z M97.3,17.8
		L97.3,17.8c-0.5,0-1.1,0.1-1.3,0.8c-0.1,0.3-0.1,0.6,0,1l1.2,4.1c0.3,1,0.1,2.1-0.6,2.8c-0.5,0.6-1.2,0.9-1.9,0.9v-1.1
		c0.4,0,0.8-0.2,1.1-0.5c0.4-0.4,0.6-1.1,0.4-1.8l-1.2-4.1c-0.2-0.6-0.2-1.1,0-1.7c0.4-0.9,1.2-1.5,2.4-1.5V17.8z"/>
	<g>
		<g>
			<path class="st5" d="M104.8,25.3v-5.8h0.9v5.1h2.6v0.8H104.8z"/>
			<path class="st5" d="M109.8,19.5l1.6,4.7h0.1l1.6-4.7h0.9l-2.1,5.8h-1l-2.1-5.8H109.8z"/>
			<path class="st5" d="M115.3,20.3c-0.1,0-0.3,0-0.4-0.1c-0.1-0.1-0.2-0.2-0.2-0.4c0-0.1,0.1-0.3,0.2-0.4c0.1-0.1,0.2-0.1,0.4-0.1
				s0.3,0,0.4,0.1c0.1,0.1,0.2,0.2,0.2,0.4c0,0.1-0.1,0.3-0.2,0.4C115.5,20.3,115.4,20.3,115.3,20.3z M114.8,25.3V21h0.8v4.4H114.8z
				"/>
			<path class="st5" d="M120.1,21.1c0-0.3-0.2-0.5-0.4-0.6c-0.2-0.1-0.5-0.2-0.8-0.2c-0.2,0-0.4,0-0.6,0.1s-0.3,0.2-0.4,0.3
				c-0.1,0.1-0.1,0.3-0.1,0.4c0,0.1,0,0.3,0.1,0.4c0.1,0.1,0.2,0.2,0.3,0.3s0.2,0.1,0.3,0.2s0.2,0.1,0.4,0.1l0.6,0.1
				c0.2,0,0.4,0.1,0.6,0.2c0.2,0.1,0.4,0.2,0.5,0.3c0.2,0.1,0.3,0.3,0.4,0.5c0.1,0.2,0.2,0.4,0.2,0.7c0,0.3-0.1,0.6-0.3,0.9
				c-0.2,0.3-0.4,0.5-0.7,0.6c-0.3,0.1-0.7,0.2-1.2,0.2c-0.4,0-0.8-0.1-1.1-0.2s-0.6-0.3-0.7-0.6c-0.2-0.3-0.3-0.6-0.3-0.9h0.9
				c0,0.2,0.1,0.4,0.2,0.5c0.1,0.1,0.3,0.2,0.5,0.3c0.2,0.1,0.4,0.1,0.6,0.1c0.2,0,0.5,0,0.7-0.1c0.2-0.1,0.3-0.2,0.5-0.3
				s0.2-0.3,0.2-0.5c0-0.2,0-0.3-0.1-0.4c-0.1-0.1-0.2-0.2-0.4-0.3s-0.4-0.1-0.6-0.2l-0.7-0.2c-0.5-0.1-0.8-0.3-1.1-0.6
				c-0.3-0.2-0.4-0.6-0.4-1c0-0.3,0.1-0.6,0.3-0.9c0.2-0.2,0.4-0.4,0.7-0.6s0.7-0.2,1.1-0.2c0.4,0,0.7,0.1,1,0.2s0.5,0.3,0.7,0.6
				c0.2,0.2,0.3,0.5,0.3,0.8H120.1z"/>
		</g>
	</g>
</g>
</svg>
