<?xml version="1.0" encoding="utf-8"?>
<!-- Generator: Adobe Illustrator 27.7.0, SVG Export Plug-In . SVG Version: 6.00 Build 0)  -->
<svg version="1.1" id="Capa_1" xmlns="http://www.w3.org/2000/svg" xmlns:xlink="http://www.w3.org/1999/xlink" x="0px" y="0px"
	 viewBox="0 0 96 96" style="enable-background:new 0 0 96 96;" xml:space="preserve">
<style type="text/css">
	.st0{fill-rule:evenodd;clip-rule:evenodd;fill:#FFFFFF;}
	.st1{fill-rule:evenodd;clip-rule:evenodd;fill:#F23054;}
</style>
<rect x="12" y="12" class="st0" width="72" height="72"/>
<path class="st1" d="M93.7,11.6c-2-4-5.3-7.3-9.3-9.3C79.8,0,73.8,0,61.9,0H34.1c-12,0-17.9,0-22.5,2.3c-4,2-7.3,5.3-9.3,9.3
	C0,16.2,0,22.2,0,34.1v27.7c0,11.9,0,17.9,2.3,22.5c2,4,5.3,7.3,9.3,9.3C16.2,96,22.2,96,34.1,96h27.7c11.9,0,17.9,0,22.5-2.3
	c4-2,7.3-5.3,9.3-9.3C96,79.8,96,73.8,96,61.9V34.1C96,22.2,96,16.2,93.7,11.6z M28,80c-6.6,0-12-5.4-12-12V16h6.7v52
	c0,2.9,2.4,5.3,5.3,5.3h1.8l0.8,6.7H28z M41.3,80h-6.7l-8-64h6.7L38,53.3L42.7,16h6.7L41.3,80z M60,80h-6.7V29.3H60V80z M56.7,25.3
	c-2.6,0-4.7-2.1-4.7-4.7s2.1-4.7,4.7-4.7c2.6,0,4.7,2.1,4.7,4.7C61.3,23.2,59.2,25.3,56.7,25.3z M80,22.7L80,22.7
	c-2.8,0-6.5,0.8-8,4.6c-0.6,1.6-0.7,3.7-0.1,5.7l7.3,24.6c1.8,6.1,0.4,12.6-3.6,17.1C72.5,78,68.3,80,64,80v-6.7
	c2.4,0,4.8-1.2,6.7-3.2c2.5-2.7,3.3-6.8,2.2-10.7l-7.3-24.6c-1-3.5-0.9-6.9,0.2-10C68,19.2,73.1,16,80,16V22.7z"/>
</svg>
