<?xml version="1.0" encoding="UTF-8"?>
<svg id="svg1" xmlns="http://www.w3.org/2000/svg" viewBox="0 0 453.43 216">
  <defs>
    <style>
      .cls-1, .cls-2 {
        fill: #12b4d4;
      }

      .cls-3 {
        fill: #203460;
        fill-rule: evenodd;
      }

      .cls-2 {
        stroke: #12b4d4;
        stroke-miterlimit: 10;
        stroke-width: 11px;
      }
    </style>
  </defs>
  <g id="g1">
    <path id="path53" class="cls-3" d="M5.23,26.21C0,36.48,0,49.92,0,76.8v62.4c0,26.88,0,40.32,5.23,50.59,4.6,9.03,11.94,16.38,20.98,20.98,10.27,5.23,23.71,5.23,50.59,5.23h62.4c26.88,0,40.32,0,50.59-5.23,9.03-4.6,16.38-11.94,20.98-20.98,5.23-10.27,5.23-23.71,5.23-50.59v-62.4c0-26.88,0-40.32-5.23-50.59-4.6-9.03-11.94-16.38-20.98-20.98-10.27-5.23-23.71-5.23-50.59-5.23h-62.4c-26.88,0-40.32,0-50.59,5.23-9.03,4.6-16.38,11.94-20.98,20.98"/>
    <path id="path55" class="cls-1" d="M127.5,36c-5.8,0-10.5,4.7-10.5,10.5s4.7,10.5,10.5,10.5,10.5-4.7,10.5-10.5-4.7-10.5-10.5-10.5"/>
    <path id="path57" class="cls-1" d="M180,51v-15c-15.43,0-27.08,7.25-31.97,19.88-2.66,6.87-2.85,14.61-.55,22.39l16.39,55.44c2.57,8.69.7,17.92-4.88,24.08-4.13,4.57-9.6,7.19-14.99,7.19v15c9.63,0,19.15-4.42,26.12-12.14,9.06-10.02,12.18-24.74,8.13-38.4l-16.39-55.44c-1.33-4.51-1.28-9.03.15-12.72,3.3-8.51,11.6-10.3,17.99-10.3"/>
    <path id="path59" class="cls-1" d="M120,180h15v-114h-15v114Z"/>
    <path id="path61" class="cls-1" d="M62.99,165c-6.61,0-11.99-5.38-11.99-11.99V36h-15v117.01c0,14.88,12.11,26.99,26.99,26.99h6.01l-1.88-15h-4.13Z"/>
    <path id="path63" class="cls-1" d="M85.5,120l-10.5-84h-15l18,144h15l18-144h-15l-10.5,84Z"/>
  </g>
  <g>
    <path class="cls-1" d="M249.47,85.14l11.84,48.93,11.67-48.93h17.47l-20.88,71.64h-16.53l-21.13-71.64h17.55Z"/>
    <path class="cls-1" d="M286.2,141.02c0-3.5.82-6.59,2.47-9.27s3.93-4.78,6.86-6.3c2.92-1.52,6.26-2.28,10.01-2.28,1.76,0,3.42.17,4.98.5,1.56.34,2.91.84,4.05,1.51v-1.61c0-2.39-.61-4.17-1.83-5.33-1.22-1.16-3.2-1.74-5.92-1.74-2.5,0-4.84.49-7.03,1.46-2.19.98-4.47,2.41-6.86,4.29l-4.69-11.91c3.01-2.29,6.18-3.99,9.5-5.1s6.89-1.66,10.69-1.66c7.1,0,12.6,1.86,16.49,5.56,3.89,3.71,5.84,9.21,5.84,16.5v10.05c0,1.77.23,3,.68,3.69.45.69,1.25,1.1,2.39,1.23v16.14c-1.31.34-2.54.59-3.71.76-1.17.17-2.2.25-3.11.25-2.9,0-5.1-.62-6.6-1.87-1.51-1.24-2.49-3.08-2.94-5.5l-.34-1.92c-1.99,3.03-4.29,5.33-6.9,6.91-2.61,1.58-5.4,2.37-8.35,2.37s-5.62-.73-8.01-2.18-4.26-3.45-5.62-6c-1.36-2.54-2.04-5.4-2.04-8.58ZM312.44,142.15c.62-.51,1.14-1.06,1.53-1.67.4-.6.6-1.22.6-1.86v-3.72c-.91-.38-1.95-.7-3.11-.95-1.17-.25-2.2-.38-3.11-.38-1.93,0-3.57.54-4.9,1.62-1.33,1.08-2,2.45-2,4.1,0,.89.23,1.7.68,2.43.45.73,1.08,1.3,1.87,1.72.79.41,1.71.62,2.73.62.96,0,1.97-.17,3.02-.53,1.05-.35,1.95-.81,2.68-1.38Z"/>
    <path class="cls-1" d="M339.37,83.12h16.19v52.57c0,1.95.35,3.45,1.07,4.49.71,1.04,1.75,1.56,3.11,1.56.68,0,1.42-.13,2.22-.4.79-.27,1.53-.64,2.22-1.11l2.04,14.12c-1.93,1.08-4.1,1.92-6.52,2.52-2.42.61-4.7.91-6.86.91-4.32,0-7.64-1.33-9.97-3.99-2.33-2.66-3.49-6.44-3.49-11.35v-59.33Z"/>
    <path class="cls-1" d="M369.62,83.12h16.19v52.57c0,1.95.35,3.45,1.07,4.49.71,1.04,1.75,1.56,3.11,1.56.68,0,1.42-.13,2.22-.4.79-.27,1.53-.64,2.22-1.11l2.04,14.12c-1.93,1.08-4.1,1.92-6.52,2.52-2.42.61-4.7.91-6.86.91-4.32,0-7.64-1.33-9.97-3.99-2.33-2.66-3.49-6.44-3.49-11.35v-59.33Z"/>
    <line class="cls-2" x1="334.4" y1="97.21" x2="343.51" y2="86.74"/>
    <line class="cls-2" x1="364.65" y1="97.21" x2="373.76" y2="86.74"/>
    <path class="cls-1" d="M396.97,162.12c1.31.54,2.51.96,3.62,1.26s2.12.45,3.02.45c1.19,0,2.19-.25,2.98-.76.79-.5,1.42-1.28,1.88-2.31.45-1.04.74-2.3.85-3.79l-16.27-52.57h16.62l8.52,33.08,6.9-33.08h15.08l-15.17,58.87c-.85,3.4-2.24,6.38-4.17,8.94-1.93,2.57-4.23,4.57-6.9,6.01-2.67,1.44-5.54,2.16-8.61,2.16-1.42,0-2.83-.15-4.22-.45-1.39-.3-2.77-.79-4.13-1.46v-16.34Z"/>
  </g>
</svg>