<?xml version="1.0" encoding="UTF-8" standalone="no"?>
<!-- Created with Inkscape (http://www.inkscape.org/) -->

<svg
   width="300"
   height="300"
   viewBox="0 0 79.374998 79.375"
   version="1.1"
   id="svg1"
   xmlns="http://www.w3.org/2000/svg"
   xmlns:svg="http://www.w3.org/2000/svg">
  <defs
     id="defs1" />
  <g
     id="layer1">
    <rect
       style="fill:#f23054;fill-opacity:1;fill-rule:evenodd;stroke-width:0.839288"
       id="rect2"
       width="81.47023"
       height="81.016563"
       x="-0.11658433"
       y="-0.74025995" />
    <rect
       x="24.720617"
       y="24.165741"
       class="st0"
       width="32.003735"
       height="32.003735"
       id="rect1"
       style="clip-rule:evenodd;fill:#ffffff;fill-rule:evenodd;stroke-width:0.444497" />
    <path
       class="st1"
       d="M 61.035965,23.987942 C 60.146962,22.209956 58.680135,20.743118 56.902142,19.854125 54.857461,18.831784 52.190481,18.831784 46.90098,18.831784 H 34.543986 c -5.333961,0 -7.956481,0 -10.001177,1.022341 -1.777977,0.888993 -3.24482,2.355831 -4.133808,4.133817 -1.022341,2.044682 -1.022341,4.71166 -1.022341,10.001165 v 12.312547 c 0,5.289505 0,7.956484 1.022341,10.001167 0.888988,1.777984 2.355831,3.244824 4.133808,4.133814 2.044696,1.066793 4.711662,1.066793 10.001177,1.066793 h 12.312548 c 5.289501,0 7.956482,0 10.001163,-1.02234 1.777992,-0.888995 3.244819,-2.355833 4.133808,-4.133819 1.066801,-2.044681 1.066801,-4.71166 1.066801,-10.001167 V 33.989107 c 0,-5.289505 0,-7.956483 -1.022341,-10.001165 z M 31.83256,54.391485 c -2.933685,0 -5.333961,-2.400278 -5.333961,-5.333955 V 25.943724 h 2.97813 V 49.05753 c 0,1.28904 1.066786,2.355829 2.355831,2.355829 h 0.800082 l 0.355596,2.978126 z m 5.9118,0 H 34.76623 L 31.210261,25.943724 h 2.97813 l 2.089127,16.579711 2.089127,-16.579711 h 2.97813 z m 8.312077,0 h -2.97813 V 31.855526 h 2.97813 z M 44.589595,30.077541 c -1.155693,0 -2.089127,-0.933443 -2.089127,-2.089134 0,-1.15569 0.933434,-2.089132 2.089127,-2.089132 1.155692,0 2.089142,0.933442 2.089142,2.089132 -0.04443,1.155691 -0.977895,2.089134 -2.089142,2.089134 z M 54.946368,28.92185 v 0 c -1.244599,0 -2.889224,0.355597 -3.55597,2.044683 -0.266704,0.711193 -0.311149,1.644635 -0.04443,2.533628 l 3.244834,10.934611 c 0.800082,2.711423 0.177783,5.600651 -1.600194,7.600884 -1.377936,1.466839 -3.24482,2.355829 -5.156149,2.355829 v -2.978126 c 1.066786,0 2.133573,-0.533394 2.978116,-1.422384 1.111247,-1.200142 1.466842,-3.022576 0.977894,-4.756112 L 48.54565,34.300254 c -0.444502,-1.555735 -0.400056,-3.067023 0.08886,-4.444962 0.977895,-2.489179 3.24482,-3.911568 6.311857,-3.911568 z"
       id="path1"
       style="clip-rule:evenodd;fill:#f23054;fill-rule:evenodd;stroke-width:0.444497" />
  </g>
</svg>
