<?xml version="1.0" encoding="utf-8"?>
<!-- Generator: Adobe Illustrator 27.7.0, SVG Export Plug-In . SVG Version: 6.00 Build 0)  -->
<svg version="1.1" id="Capa_1" xmlns="http://www.w3.org/2000/svg" xmlns:xlink="http://www.w3.org/1999/xlink" x="0px" y="0px"
	 viewBox="0 0 48 48" style="enable-background:new 0 0 48 48;" xml:space="preserve">
<style type="text/css">
	.st0{fill:#FFFFFF;}
</style>
<g>
	<g>
		<path class="st0" d="M40.9,40.9h-7.1V29.8c0-2.7,0-6.1-3.7-6.1s-4.3,2.9-4.3,5.9v11.3h-7.1V18h6.8v3.1h0.1c1.4-2.4,4-3.8,6.7-3.7
			c7.2,0,8.5,4.7,8.5,10.9L40.9,40.9z"/>
		<path class="st0" d="M10.7,14.9c-2.3,0-4.1-1.8-4.1-4.1s1.8-4.1,4.1-4.1s4.1,1.8,4.1,4.1S13,14.9,10.7,14.9L10.7,14.9"/>
		<rect x="7.1" y="18" class="st0" width="7.1" height="22.9"/>
	</g>
</g>
</svg>
