<?xml version="1.0" standalone="no"?>
<!DOCTYPE svg PUBLIC "-//W3C//DTD SVG 20010904//EN"
 "http://www.w3.org/TR/2001/REC-SVG-20010904/DTD/svg10.dtd">
<svg version="1.0" xmlns="http://www.w3.org/2000/svg"
 width="512.000000pt" height="512.000000pt" viewBox="0 0 512.000000 512.000000"
 preserveAspectRatio="xMidYMid meet">
<metadata>
Created by potrace 1.16, written by Peter Selinger 2001-2019
</metadata>
<g transform="translate(0.000000,512.000000) scale(0.100000,-0.100000)"
fill="#000000" stroke="none">
<path d="M56 5108 c4 -6 443 -646 976 -1421 532 -775 968 -1411 968 -1413 0
-2 -1799 -2097 -1938 -2256 -14 -17 -3 -18 214 -18 l230 0 850 989 851 988
679 -988 679 -989 753 0 c600 0 752 3 745 13 -4 6 -456 666 -1005 1465 -550
799 -1001 1458 -1004 1465 -4 12 239 297 1523 1790 l334 387 -230 0 -230 0
-803 -934 c-442 -513 -806 -932 -809 -930 -3 1 -293 422 -645 933 l-639 931
-753 0 c-581 0 -751 -3 -746 -12z m2799 -2505 c836 -1197 1537 -2200 1558
-2230 l38 -53 -333 0 -333 1 -1520 2175 c-836 1197 -1537 2200 -1558 2230
l-39 54 334 0 333 -1 1520 -2176z"/>
</g>
</svg>
