<?xml version="1.0" encoding="UTF-8" standalone="no"?>
<svg
   id="svg1"
   viewBox="0 0 453.43 216"
   version="1.1"
   sodipodi:docname="LVISVally_moments.svg"
   inkscape:version="1.4.3 (0d15f75042, 2025-12-25)"
   xmlns:inkscape="http://www.inkscape.org/namespaces/inkscape"
   xmlns:sodipodi="http://sodipodi.sourceforge.net/DTD/sodipodi-0.dtd"
   xmlns="http://www.w3.org/2000/svg"
   xmlns:svg="http://www.w3.org/2000/svg">
  <sodipodi:namedview
     id="namedview5"
     pagecolor="#ffffff"
     bordercolor="#000000"
     borderopacity="0.25"
     inkscape:showpageshadow="2"
     inkscape:pageopacity="0.0"
     inkscape:pagecheckerboard="0"
     inkscape:deskcolor="#d1d1d1"
     showguides="true"
     inkscape:zoom="1.6964034"
     inkscape:cx="323.92061"
     inkscape:cy="47.748078"
     inkscape:window-width="1920"
     inkscape:window-height="1011"
     inkscape:window-x="0"
     inkscape:window-y="0"
     inkscape:window-maximized="1"
     inkscape:current-layer="svg1" />
  <defs
     id="defs1">
    <style
       id="style1">
      .cls-1, .cls-2 {
        fill: #12b4d4;
      }

      .cls-3 {
        fill: #203460;
        fill-rule: evenodd;
      }

      .cls-2 {
        stroke: #12b4d4;
        stroke-miterlimit: 10;
        stroke-width: 11px;
      }
    </style>
  </defs>
  <path
     id="path53"
     class="cls-3"
     d="M 5.23,26.21 C 0,36.48 0,49.92 0,76.8 v 62.4 c 0,26.88 0,40.32 5.23,50.59 4.6,9.03 11.94,16.38 20.98,20.98 C 36.48,216 49.92,216 76.8,216 h 62.4 c 26.88,0 40.32,0 50.59,-5.23 9.03,-4.6 16.38,-11.94 20.98,-20.98 C 216,179.52 216,166.08 216,139.2 V 76.8 C 216,49.92 216,36.48 210.77,26.21 206.17,17.18 198.83,9.83 189.79,5.23 179.52,0 166.08,0 139.2,0 H 76.8 C 49.92,0 36.48,0 26.21,5.23 17.18,9.83 9.83,17.17 5.23,26.21"
     style="fill:#203460;fill-opacity:1" />
  <path
     id="path63"
     style="fill:#12b4d4;fill-opacity:1"
     class="cls-1"
     d="M 85.5,120 75,36 H 60 L 78,180 H 93 L 111,36 H 96 Z M 62.99,165 C 56.38,165 51,159.62 51,153.01 V 36 H 36 V 153.01 C 36,167.89 48.11,180 62.99,180 H 69 L 67.12,165 Z M 120,180 h 15 V 66 H 120 Z M 180,51 V 36 c -15.43,0 -27.08,7.25 -31.97,19.88 -2.66,6.87 -2.85,14.61 -0.55,22.39 l 16.39,55.44 c 2.57,8.69 0.7,17.92 -4.88,24.08 -4.13,4.57 -9.6,7.19 -14.99,7.19 v 15 c 9.63,0 19.15,-4.42 26.12,-12.14 9.06,-10.02 12.18,-24.74 8.13,-38.4 L 161.86,74 c -1.33,-4.51 -1.28,-9.03 0.15,-12.72 3.3,-8.51 11.6,-10.3 17.99,-10.3 M 127.5,36 C 121.7,36 117,40.7 117,46.5 117,52.3 121.7,57 127.5,57 133.3,57 138,52.3 138,46.5 138,40.7 133.3,36 127.5,36" />
  <text
     xml:space="preserve"
     style="font-weight:800;font-size:30.7441px;line-height:1.2;font-family:Raleway;-inkscape-font-specification:'Raleway Ultra-Bold';letter-spacing:0px;writing-mode:lr-tb;direction:ltr;fill:#ffffff;fill-opacity:1;stroke:none;stroke-width:1.21358"
     x="251.52187"
     y="180.94391"
     id="text5"><tspan
       sodipodi:role="line"
       id="tspan5"
       x="251.52187"
       y="180.94391"
       style="stroke-width:1.21358;fill:#ffffff;fill-opacity:1">moments</tspan></text>
  <path
     id="rect9-7"
     style="fill:#12b4d4;stroke-width:1.21677;fill-opacity:1"
     d="m 137.0645,310.42661 h 14.14392 v 9.97292 H 137.0645 Z m 19.2101,22.78183 h 14.14392 v 9.97292 H 156.2746 Z m -29.46599,72.55064 c 0.4146,1.3423 0.8521,2.52273 1.32519,3.55635 0.4731,1.03362 0.99863,1.89315 1.57025,2.57105 0.75581,0.89633 1.58419,1.48494 2.48018,1.74416 0.88826,0.26581 1.89134,0.22672 2.9797,-0.10502 1.08974,-0.34587 2.24792,-0.95712 3.46957,-1.85539 l 30.30344,-46.87106 10.55591,12.51856 -20.15979,28.19987 29.95354,-16.58518 9.57781,11.3586 -55.14198,27.33814 c -3.16809,1.59859 -6.35449,2.51387 -9.5592,2.74585 -3.21244,0.23856 -6.21926,-0.17689 -9.0282,-1.23979 -2.80894,-1.0629 -5.18834,-2.75055 -7.1382,-5.06294 -0.90188,-1.06958 -1.68147,-2.23039 -2.3324,-3.47491 -0.65094,-1.24453 -1.14865,-2.60663 -1.49451,-4.07219 l 12.63096,-10.75951 z m 43.69679,-72.62031 10.2828,12.19468 -40.63706,34.61612 c -1.50737,1.28403 -2.44458,2.53538 -2.79122,3.76251 -0.35298,1.21961 -0.0944,2.34537 0.76938,3.36975 0.43189,0.51219 1.00238,0.98397 1.71919,1.40876 0.71047,0.41726 1.46648,0.73101 2.26804,0.94125 l -9.61921,10.83427 c -2.06066,-0.74257 -4.08822,-1.82394 -6.08905,-3.25165 -2.00856,-1.42113 -3.68856,-2.94094 -5.06045,-4.5679 -2.74377,-3.25392 -3.82431,-6.63039 -3.24797,-10.13695 0.57634,-3.50656 2.76156,-6.86934 6.55703,-10.10246 l 45.8626,-39.06743 z m -19.21278,-22.78499 10.28281,12.19468 -40.63706,34.61613 c -1.50737,1.28403 -2.44459,2.53537 -2.79122,3.76251 -0.35298,1.2196 -0.0944,2.34536 0.76937,3.36974 0.43189,0.51219 1.00238,0.98398 1.7192,1.40877 0.71047,0.41725 1.46648,0.731 2.26803,0.94124 l -9.6192,10.83427 c -2.06066,-0.74257 -4.08823,-1.82394 -6.08905,-3.25165 -2.00856,-1.42113 -3.68857,-2.94093 -5.06045,-4.56789 -2.743778,-3.25393 -3.824319,-6.6304 -3.247976,-10.13696 0.576343,-3.50655 2.761556,-6.86934 6.557036,-10.10246 l 45.86259,-39.06743 z m -78.527215,-1.92304 c 2.70553,-2.30467 5.614935,-3.72172 8.734568,-4.24362 3.119632,-0.5219 6.191053,-0.18735 9.226966,1.01871 3.029562,1.19852 5.738392,3.21384 8.120141,6.03843 1.117834,1.32567 2.04074,2.68796 2.77646,4.08029 0.72798,1.3989 1.19891,2.74499 1.40504,4.04485 l 1.24455,-1.06015 c 1.84749,-1.57376 2.83601,-3.20531 2.95784,-4.88808 0.12183,-1.68276 -0.68739,-3.55606 -2.41495,-5.60483 -1.58783,-1.88305 -3.45282,-3.32294 -5.59358,-4.33378 -2.14849,-1.00425 -4.701995,-1.77997 -7.673219,-2.34224 l 6.227758,-11.37507 c 3.681941,0.75929 7.009431,2.02759 9.976111,3.79738 2.96668,1.76979 5.65926,4.09663 8.07276,6.95888 4.50945,5.34788 6.56488,10.71537 6.17542,16.08177 -0.3972,5.37299 -3.41023,10.4634 -9.04547,15.26369 l -7.76873,6.61769 c -1.36823,1.16551 -2.17295,2.14868 -2.42051,2.94198 -0.24757,0.79329 -0.0564,1.66585 0.56716,2.61012 l -12.476354,10.62782 c -1.094847,-0.76284 -2.069313,-1.52468 -2.94383,-2.29401 -0.874517,-0.76933 -1.590545,-1.49247 -2.168516,-2.17791 -1.841885,-2.18434 -2.759913,-4.24969 -2.746352,-6.20262 -5.2e-4,-1.95388 0.799385,-3.90363 2.384256,-5.8361 l 1.268232,-1.52037 c -3.606131,0.49627 -6.844857,0.27836 -9.723907,-0.64716 -2.879051,-0.92552 -5.261749,-2.50681 -7.135392,-4.72882 -1.873642,-2.222 -3.005151,-4.7138 -3.402256,-7.46879 -0.397106,-2.75499 -0.03879,-5.48048 1.068603,-8.18397 1.099661,-2.69692 2.878575,-5.09235 5.336742,-7.18631 z m 15.792391,20.50865 c 0.788017,0.13117 1.54344,0.16068 2.262678,0.0528 0.717858,-0.0938 1.32415,-0.35141 1.818875,-0.77283 l 2.875592,-2.44954 c -0.284228,-0.93565 -0.697403,-1.92972 -1.240905,-2.96807 -0.549854,-1.04589 -1.10355,-1.90731 -1.681521,-2.59275 -1.225807,-1.45372 -2.684849,-2.33342 -4.364426,-2.62406 -1.679576,-0.29063 -3.164137,0.10683 -4.439601,1.19331 -0.687977,0.58605 -1.168034,1.29266 -1.44652,2.11229 -0.278486,0.81964 -0.318968,1.6695 -0.141876,2.54111 0.184822,0.86502 0.606812,1.69627 1.254648,2.46455 0.609728,0.7231 1.382623,1.37191 2.327796,1.92574 0.937443,0.56042 1.864646,0.93542 2.768908,1.10994 z m 4.074891,-84.9702 -30.303334,41.13743 45.235307,-23.42917 11.09578,13.1588 -68.639912,31.44599 -10.498749,-12.45077 41.957972,-63.08887 11.146585,13.21905 z"
     transform="matrix(0.65816883,-0.75287037,0.77264697,0.63483593,0,0)" />
</svg>
